<?xml version="1.0" encoding="UTF-8" standalone="no"?>
<!-- Created with Inkscape (http://www.inkscape.org/) -->

<svg
   width="37.027561mm"
   height="33.15612mm"
   viewBox="0 0 37.027561 33.15612"
   version="1.1"
   id="svg1"
   xml:space="preserve"
   xmlns="http://www.w3.org/2000/svg"
   xmlns:svg="http://www.w3.org/2000/svg"><defs
     id="defs1"><filter
       style="color-interpolation-filters:sRGB"
       id="filter162"
       x="-0.025055476"
       y="-0.014476965"
       width="1.0501109"
       height="1.0289539"><feFlood
         result="flood"
         in="SourceGraphic"
         flood-opacity="1.000000"
         flood-color="rgb(255,255,255)"
         id="feFlood161" /><feGaussianBlur
         result="blur"
         in="SourceGraphic"
         stdDeviation="0.200000"
         id="feGaussianBlur161" /><feOffset
         result="offset"
         in="blur"
         dx="0.000000"
         dy="0.000000"
         id="feOffset161" /><feComposite
         result="comp1"
         operator="in"
         in="flood"
         in2="offset"
         id="feComposite161" /><feComposite
         result="comp2"
         operator="over"
         in="SourceGraphic"
         in2="comp1"
         id="feComposite162" /></filter><filter
       style="color-interpolation-filters:sRGB"
       id="filter164"
       x="0"
       y="0"
       width="1"
       height="1"><feComposite
         result="comp1"
         operator="in"
         in="flood"
         in2="offset"
         id="feComposite163" /></filter></defs><g
     id="layer1"
     transform="translate(-109.85841,-123.49065)"><path
       id="path2"
       style="fill:#383838;fill-opacity:1;stroke:none;stroke-width:0.263732;stroke-linejoin:round;stroke-dasharray:none;stroke-opacity:0"
       d="m 126.52226,124.22753 a 15.841228,15.841228 0 0 0 -15.84093,15.84093 15.841228,15.841228 0 0 0 15.84093,15.84143 15.841228,15.841228 0 0 0 2.46503,-0.19308 15.841228,15.841228 0 0 1 -13.37739,-15.64835 15.841228,15.841228 0 0 1 13.37739,-15.64835 15.841228,15.841228 0 0 0 -2.46503,-0.19258 z" /><path
       id="path1"
       style="fill:#383838;fill-opacity:1;stroke:none;stroke-width:0.186332;stroke-linejoin:round;stroke-dasharray:none;stroke-opacity:0"
       d="m 146.05786,129.58823 c -0.13204,-0.13348 -9.0313,2.19998 -9.08088,2.38108 -0.0184,0.0673 0.86267,1.01203 1.98703,2.17071 l -8.80386,8.80387 -4.81153,-4.81894 -2.28825,2.58897 7.09978,7.10027 11.22543,-11.22543 c 1.16659,1.15776 2.1251,2.07209 2.19344,2.05418 0.18162,-0.0476 2.61089,-8.92123 2.47884,-9.05471 z" /><rect
       style="fill:#383838;fill-opacity:1;stroke:none;stroke-width:0.186332;stroke-linejoin:round;stroke-dasharray:none;stroke-opacity:0"
       id="rect3"
       width="3.5793073"
       height="1.701638"
       x="117.76934"
       y="138.98599"
       ry="0.85081899" /><rect
       style="fill:#383838;fill-opacity:1;stroke:none;stroke-width:0.186332;stroke-linejoin:round;stroke-dasharray:none;stroke-opacity:0"
       id="rect5"
       width="3.5793073"
       height="1.701638"
       x="169.69678"
       y="54.428406"
       ry="0.85081899"
       transform="rotate(29.803567)" /><rect
       style="fill:#383838;fill-opacity:1;stroke:none;stroke-width:0.186332;stroke-linejoin:round;stroke-dasharray:none;stroke-opacity:0"
       id="rect6"
       width="3.5793073"
       height="1.701638"
       x="171.45546"
       y="-49.520306"
       ry="0.85081899"
       transform="rotate(61.172821)" /><rect
       style="fill:#383838;fill-opacity:1;stroke:none;stroke-width:0.186332;stroke-linejoin:round;stroke-dasharray:none;stroke-opacity:0"
       id="rect7"
       width="3.5793073"
       height="1.701638"
       x="-70.232353"
       y="183.90828"
       ry="0.85081899"
       transform="rotate(-60.157091)" /><rect
       style="fill:#383838;fill-opacity:1;stroke:none;stroke-width:0.186332;stroke-linejoin:round;stroke-dasharray:none;stroke-opacity:0"
       id="rect8"
       width="3.5793073"
       height="1.701638"
       x="26.427578"
       y="187.21246"
       ry="0.85081899"
       transform="rotate(-31.097209)" /></g></svg>
